ffmpeg started on 2025-06-21 at 12:29:37
Report written to "D:\Convert\FFMetrics\reports\psnr_report-6.txt"
Log level: 32
Command line:
ffmpeg -hide_banner -nostdin -i "G:\\\xc0\xed\xe8\xec\xe5\\[\xd2\xee\xef-4]\\\xc4\xe5\xf0\xe6\xe0\xf1\xfc \xc7\xe0 \xd0\xf3\xea\xe8\\Hand_Shakers_[03]_[AniLibria.TV]_[HDTV-Rip_720p]_HEVC.mkv" -i "G:\\\xc0\xed\xe8\xec\xe5\\[\xd2\xee\xef-4]\\\xc4\xe5\xf0\xe6\xe0\xf1\xfc \xc7\xe0 \xd0\xf3\xea\xe8\\Hand_Shakers_[03]_[AniLibria.TV]_[HDTV-Rip_720p].mkv" -lavfi "[0:v]settb=AVTB,setpts=PTS-STARTPTS,format=pix_fmts=yuv420p10,fps=30000/1001,scale=1280:720:flags=bicubic[main];[1:v]settb=AVTB,setpts=PTS-STARTPTS,format=pix_fmts=yuv420p,fps=30000/1001,scale=1280:720:flags=bicubic[ref];[main][ref]psnr=eof_action=endall:stats_file='D\\:/Convert/FFMetrics/logs/psnr_logfile-6.txt'" -f null -
Input #0, matroska,webm, from 'G:\Аниме\[Топ-4]\Держась За Руки\Hand_Shakers_[03]_[AniLibria.TV]_[HDTV-Rip_720p]_HEVC.mkv':
  Metadata:
    ENCODER         : Lavf61.7.100
  Duration: 00:23:59.83, start: -0.021000, bitrate: 1906 kb/s
  Stream #0:0(jpn): Video: hevc (Main 10), yuv420p10le(tv, bt709, progressive), 1280x720 [SAR 1:1 DAR 16:9], 29.97 fps, 29.97 tbr, 1k tbn (default)
      Metadata:
        ENCODER         : Lavc61.19.100 libx265
        BPS             : 1708097
        DURATION        : 00:23:59.671366664
        NUMBER_OF_FRAMES: 43147
        NUMBER_OF_BYTES : 307387288
        _STATISTICS_WRITING_APP: mkvpropedit v66.0.0 ('Josie') 64-bit
        _STATISTICS_WRITING_DATE_UTC: 2025-06-20 15:40:14
        _STATISTICS_TAGS: BPS DURATION NUMBER_OF_FRAMES NUMBER_OF_BYTES
  Stream #0:1(rus): Audio: aac (LC), 48000 Hz, stereo, fltp (default) (forced)
      Metadata:
        title           : Амикири и Анзен
        ENCODER         : Lavc61.19.100 aac
        BPS             : 194375
        DURATION        : 00:23:59.807000000
        NUMBER_OF_FRAMES: 67492
        NUMBER_OF_BYTES : 34982819
        _STATISTICS_WRITING_APP: mkvpropedit v66.0.0 ('Josie') 64-bit
        _STATISTICS_WRITING_DATE_UTC: 2025-06-20 15:40:14
        _STATISTICS_TAGS: BPS DURATION NUMBER_OF_FRAMES NUMBER_OF_BYTES
  Stream #0:2(rus): Subtitle: ass (ssa) (default) (forced)
      Metadata:
        title           : Надписи
        BPS             : 193
        DURATION        : 00:00:44.960000000
        NUMBER_OF_FRAMES: 9
        NUMBER_OF_BYTES : 1090
        _STATISTICS_WRITING_APP: mkvpropedit v66.0.0 ('Josie') 64-bit
        _STATISTICS_WRITING_DATE_UTC: 2025-06-20 15:40:14
        _STATISTICS_TAGS: BPS DURATION NUMBER_OF_FRAMES NUMBER_OF_BYTES
  Stream #0:3(rus): Subtitle: ass (ssa)
      Metadata:
        title           : Субтитры
        BPS             : 148
        DURATION        : 00:22:39.910000000
        NUMBER_OF_FRAMES: 354
        NUMBER_OF_BYTES : 25236
        _STATISTICS_WRITING_APP: mkvpropedit v66.0.0 ('Josie') 64-bit
        _STATISTICS_WRITING_DATE_UTC: 2025-06-20 15:40:14
        _STATISTICS_TAGS: BPS DURATION NUMBER_OF_FRAMES NUMBER_OF_BYTES
Input #1, matroska,webm, from 'G:\Аниме\[Топ-4]\Держась За Руки\Hand_Shakers_[03]_[AniLibria.TV]_[HDTV-Rip_720p].mkv':
  Metadata:
    encoder         : libebml v1.4.2 + libmatroska v1.6.4
    creation_time   : 2024-12-27T17:05:02.000000Z
  Duration: 00:23:59.81, start: 0.000000, bitrate: 4438 kb/s
  Stream #1:0(jpn): Video: h264 (High), yuv420p(tv, bt709, progressive), 1280x720 [SAR 1:1 DAR 16:9], 29.97 fps, 29.97 tbr, 1k tbn (default)
      Metadata:
        BPS             : 4245444
        DURATION        : 00:23:59.671000000
        NUMBER_OF_FRAMES: 43147
        NUMBER_OF_BYTES : 764005413
        _STATISTICS_WRITING_APP: mkvmerge v66.0.0 ('Josie') 64-bit
        _STATISTICS_WRITING_DATE_UTC: 2024-12-27 17:05:02
        _STATISTICS_TAGS: BPS DURATION NUMBER_OF_FRAMES NUMBER_OF_BYTES
  Stream #1:1(rus): Audio: aac (LC), 48000 Hz, stereo, fltp (default) (forced)
      Metadata:
        title           : Амикири и Анзен
        BPS             : 189375
        DURATION        : 00:23:59.808000000
        NUMBER_OF_FRAMES: 67491
        NUMBER_OF_BYTES : 34082955
        _STATISTICS_WRITING_APP: mkvmerge v66.0.0 ('Josie') 64-bit
        _STATISTICS_WRITING_DATE_UTC: 2024-12-27 17:05:02
        _STATISTICS_TAGS: BPS DURATION NUMBER_OF_FRAMES NUMBER_OF_BYTES
  Stream #1:2(rus): Subtitle: ass (ssa) (default) (forced)
      Metadata:
        title           : Надписи
        BPS             : 193
        DURATION        : 00:00:44.960000000
        NUMBER_OF_FRAMES: 9
        NUMBER_OF_BYTES : 1090
        _STATISTICS_WRITING_APP: mkvmerge v66.0.0 ('Josie') 64-bit
        _STATISTICS_WRITING_DATE_UTC: 2024-12-27 17:05:02
        _STATISTICS_TAGS: BPS DURATION NUMBER_OF_FRAMES NUMBER_OF_BYTES
  Stream #1:3(rus): Subtitle: ass (ssa)
      Metadata:
        title           : Субтитры
        BPS             : 148
        DURATION        : 00:22:39.910000000
        NUMBER_OF_FRAMES: 354
        NUMBER_OF_BYTES : 25236
        _STATISTICS_WRITING_APP: mkvmerge v66.0.0 ('Josie') 64-bit
        _STATISTICS_WRITING_DATE_UTC: 2024-12-27 17:05:02
        _STATISTICS_TAGS: BPS DURATION NUMBER_OF_FRAMES NUMBER_OF_BYTES
  Stream #1:4: Attachment: ttf
      Metadata:
        filename        : 10175.otf
        mimetype        : application/x-truetype-font
  Stream #1:5: Attachment: ttf
      Metadata:
        filename        : 10351.ttf
        mimetype        : application/x-truetype-font
  Stream #1:6: Attachment: ttf
      Metadata:
        filename        : 9756.ttf
        mimetype        : application/x-truetype-font
  Stream #1:7: Attachment: ttf
      Metadata:
        filename        : 10322.ttf
        mimetype        : application/x-truetype-font
Stream mapping:
  Stream #0:0 (hevc) -> settb:default
  Stream #1:0 (h264) -> settb:default
  psnr:default -> Stream #0:0 (wrapped_avframe)
  Stream #0:1 -> #0:1 (aac (native) -> pcm_s16le (native))
Output #0, null, to 'pipe:':
  Metadata:
    encoder         : Lavf61.7.100
  Stream #0:0: Video: wrapped_avframe, yuv420p10le(tv, bt709, progressive), 1280x720 [SAR 1:1 DAR 16:9], q=2-31, 200 kb/s, 29.97 fps, 29.97 tbn
      Metadata:
        encoder         : Lavc61.19.100 wrapped_avframe
  Stream #0:1(rus): Audio: pcm_s16le, 48000 Hz, stereo, s16, 1536 kb/s (default) (forced)
      Metadata:
        title           : Амикири и Анзен
        _STATISTICS_TAGS: BPS DURATION NUMBER_OF_FRAMES NUMBER_OF_BYTES
        BPS             : 194375
        DURATION        : 00:23:59.807000000
        NUMBER_OF_FRAMES: 67492
        NUMBER_OF_BYTES : 34982819
        _STATISTICS_WRITING_APP: mkvpropedit v66.0.0 ('Josie') 64-bit
        _STATISTICS_WRITING_DATE_UTC: 2025-06-20 15:40:14
        encoder         : Lavc61.19.100 pcm_s16le
frame=  260 fps=0.0 q=-0.0 size=N/A time=00:00:08.67 bitrate=N/A speed=17.1x    frame=  538 fps=522 q=-0.0 size=N/A time=00:00:17.95 bitrate=N/A speed=17.4x    frame=  926 fps=600 q=-0.0 size=N/A time=00:00:30.89 bitrate=N/A speed=  20x    frame= 1504 fps=732 q=-0.0 size=N/A time=00:00:50.18 bitrate=N/A speed=24.4x    frame= 1995 fps=773 q=-0.0 size=N/A time=00:01:06.56 bitrate=N/A speed=25.8x    frame= 2564 fps=830 q=-0.0 size=N/A time=00:01:25.55 bitrate=N/A speed=27.7x    frame= 3082 fps=856 q=-0.0 size=N/A time=00:01:42.83 bitrate=N/A speed=28.6x    frame= 3574 fps=866 q=-0.0 size=N/A time=00:01:59.25 bitrate=N/A speed=28.9x    frame= 3931 fps=848 q=-0.0 size=N/A time=00:02:11.16 bitrate=N/A speed=28.3x    frame= 4216 fps=819 q=-0.0 size=N/A time=00:02:20.67 bitrate=N/A speed=27.3x    frame= 4440 fps=783 q=-0.0 size=N/A time=00:02:28.14 bitrate=N/A speed=26.1x    frame= 4692 fps=759 q=-0.0 size=N/A time=00:02:36.55 bitrate=N/A speed=25.3x    frame= 4949 fps=739 q=-0.0 size=N/A time=00:02:45.13 bitrate=N/A speed=24.7x    frame= 5199 fps=720 q=-0.0 size=N/A time=00:02:53.47 bitrate=N/A speed=  24x    frame= 5430 fps=702 q=-0.0 size=N/A time=00:03:01.18 bitrate=N/A speed=23.4x    frame= 5639 fps=684 q=-0.0 size=N/A time=00:03:08.15 bitrate=N/A speed=22.8x    frame= 5870 fps=670 q=-0.0 size=N/A time=00:03:15.86 bitrate=N/A speed=22.3x    frame= 6138 fps=661 q=-0.0 size=N/A time=00:03:24.80 bitrate=N/A speed=22.1x    frame= 6360 fps=649 q=-0.0 size=N/A time=00:03:32.21 bitrate=N/A speed=21.7x    frame= 6769 fps=657 q=-0.0 size=N/A time=00:03:45.85 bitrate=N/A speed=21.9x    frame= 7318 fps=676 q=-0.0 size=N/A time=00:04:04.17 bitrate=N/A speed=22.5x    frame= 7745 fps=683 q=-0.0 size=N/A time=00:04:18.42 bitrate=N/A speed=22.8x    frame= 8265 fps=697 q=-0.0 size=N/A time=00:04:35.77 bitrate=N/A speed=23.3x    frame= 8861 fps=716 q=-0.0 size=N/A time=00:04:55.66 bitrate=N/A speed=23.9x    frame= 9278 fps=720 q=-0.0 size=N/A time=00:05:09.57 bitrate=N/A speed=  24x    frame= 9847 fps=734 q=-0.0 size=N/A time=00:05:28.56 bitrate=N/A speed=24.5x    frame=10448 fps=751 q=-0.0 size=N/A time=00:05:48.61 bitrate=N/A speed=  25x    frame=11037 fps=764 q=-0.0 size=N/A time=00:06:08.26 bitrate=N/A speed=25.5x    frame=11603 fps=776 q=-0.0 size=N/A time=00:06:27.15 bitrate=N/A speed=25.9x    frame=12116 fps=783 q=-0.0 size=N/A time=00:06:44.27 bitrate=N/A speed=26.1x    frame=12648 fps=791 q=-0.0 size=N/A time=00:07:02.02 bitrate=N/A speed=26.4x    frame=13273 fps=804 q=-0.0 size=N/A time=00:07:22.87 bitrate=N/A speed=26.8x    frame=13798 fps=811 q=-0.0 size=N/A time=00:07:40.39 bitrate=N/A speed=27.1x    frame=14190 fps=809 q=-0.0 size=N/A time=00:07:53.47 bitrate=N/A speed=  27x    frame=14567 fps=807 q=-0.0 size=N/A time=00:08:06.05 bitrate=N/A speed=26.9x    frame=14972 fps=807 q=-0.0 size=N/A time=00:08:19.56 bitrate=N/A speed=26.9x    frame=15560 fps=815 q=-0.0 size=N/A time=00:08:39.18 bitrate=N/A speed=27.2x    frame=16100 fps=822 q=-0.0 size=N/A time=00:08:57.20 bitrate=N/A speed=27.4x    frame=16604 fps=826 q=-0.0 size=N/A time=00:09:14.02 bitrate=N/A speed=27.6x    frame=17057 fps=827 q=-0.0 size=N/A time=00:09:29.13 bitrate=N/A speed=27.6x    frame=17442 fps=825 q=-0.0 size=N/A time=00:09:41.98 bitrate=N/A speed=27.5x    frame=17947 fps=829 q=-0.0 size=N/A time=00:09:58.83 bitrate=N/A speed=27.7x    frame=18423 fps=831 q=-0.0 size=N/A time=00:10:14.71 bitrate=N/A speed=27.7x    frame=18952 fps=836 q=-0.0 size=N/A time=00:10:32.36 bitrate=N/A speed=27.9x    frame=19499 fps=840 q=-0.0 size=N/A time=00:10:50.61 bitrate=N/A speed=  28x    frame=19905 fps=839 q=-0.0 size=N/A time=00:11:04.16 bitrate=N/A speed=  28x    frame=20248 fps=836 q=-0.0 size=N/A time=00:11:15.60 bitrate=N/A speed=27.9x    frame=20751 fps=838 q=-0.0 size=N/A time=00:11:32.39 bitrate=N/A speed=  28x    frame=21233 fps=841 q=-0.0 size=N/A time=00:11:48.47 bitrate=N/A speed=  28x    frame=21715 fps=843 q=-0.0 size=N/A time=00:12:04.55 bitrate=N/A speed=28.1x    frame=22251 fps=846 q=-0.0 size=N/A time=00:12:22.44 bitrate=N/A speed=28.2x    frame=22788 fps=850 q=-0.0 size=N/A time=00:12:40.35 bitrate=N/A speed=28.4x    frame=23323 fps=854 q=-0.0 size=N/A time=00:12:58.21 bitrate=N/A speed=28.5x    frame=23838 fps=856 q=-0.0 size=N/A time=00:13:15.39 bitrate=N/A speed=28.6x    frame=24387 fps=860 q=-0.0 size=N/A time=00:13:33.74 bitrate=N/A speed=28.7x    frame=24904 fps=863 q=-0.0 size=N/A time=00:13:50.96 bitrate=N/A speed=28.8x    frame=25482 fps=867 q=-0.0 size=N/A time=00:14:10.24 bitrate=N/A speed=28.9x    frame=25966 fps=868 q=-0.0 size=N/A time=00:14:26.39 bitrate=N/A speed=  29x    frame=26539 fps=873 q=-0.0 size=N/A time=00:14:45.51 bitrate=N/A speed=29.1x    frame=27129 fps=877 q=-0.0 size=N/A time=00:15:05.20 bitrate=N/A speed=29.3x    frame=27670 fps=880 q=-0.0 size=N/A time=00:15:23.25 bitrate=N/A speed=29.4x    frame=28185 fps=882 q=-0.0 size=N/A time=00:15:40.43 bitrate=N/A speed=29.4x    frame=28591 fps=880 q=-0.0 size=N/A time=00:15:53.98 bitrate=N/A speed=29.4x    frame=28896 fps=876 q=-0.0 size=N/A time=00:16:04.16 bitrate=N/A speed=29.2x    frame=29291 fps=874 q=-0.0 size=N/A time=00:16:17.34 bitrate=N/A speed=29.2x    frame=29762 fps=875 q=-0.0 size=N/A time=00:16:33.05 bitrate=N/A speed=29.2x    frame=30349 fps=879 q=-0.0 size=N/A time=00:16:52.64 bitrate=N/A speed=29.3x    frame=30915 fps=882 q=-0.0 size=N/A time=00:17:11.53 bitrate=N/A speed=29.4x    frame=31537 fps=886 q=-0.0 size=N/A time=00:17:32.28 bitrate=N/A speed=29.6x    frame=32137 fps=890 q=-0.0 size=N/A time=00:17:52.30 bitrate=N/A speed=29.7x    frame=32696 fps=893 q=-0.0 size=N/A time=00:18:10.95 bitrate=N/A speed=29.8x    frame=33182 fps=894 q=-0.0 size=N/A time=00:18:27.17 bitrate=N/A speed=29.8x    frame=33522 fps=891 q=-0.0 size=N/A time=00:18:38.51 bitrate=N/A speed=29.7x    frame=33781 fps=885 q=-0.0 size=N/A time=00:18:47.15 bitrate=N/A speed=29.5x    frame=34060 fps=881 q=-0.0 size=N/A time=00:18:56.46 bitrate=N/A speed=29.4x    frame=34407 fps=878 q=-0.0 size=N/A time=00:19:08.04 bitrate=N/A speed=29.3x    frame=34733 fps=875 q=-0.0 size=N/A time=00:19:18.92 bitrate=N/A speed=29.2x    frame=35017 fps=871 q=-0.0 size=N/A time=00:19:28.40 bitrate=N/A speed=29.1x    frame=35413 fps=870 q=-0.0 size=N/A time=00:19:41.61 bitrate=N/A speed=  29x    frame=35698 fps=865 q=-0.0 size=N/A time=00:19:51.12 bitrate=N/A speed=28.9x    frame=36064 fps=864 q=-0.0 size=N/A time=00:20:03.33 bitrate=N/A speed=28.8x    frame=36547 fps=865 q=-0.0 size=N/A time=00:20:19.45 bitrate=N/A speed=28.8x    frame=36891 fps=862 q=-0.0 size=N/A time=00:20:30.92 bitrate=N/A speed=28.8x    frame=37147 fps=858 q=-0.0 size=N/A time=00:20:39.47 bitrate=N/A speed=28.6x    frame=37462 fps=855 q=-0.0 size=N/A time=00:20:49.98 bitrate=N/A speed=28.5x    frame=37792 fps=852 q=-0.0 size=N/A time=00:21:00.99 bitrate=N/A speed=28.4x    frame=37962 fps=846 q=-0.0 size=N/A time=00:21:06.66 bitrate=N/A speed=28.2x    frame=38213 fps=842 q=-0.0 size=N/A time=00:21:15.04 bitrate=N/A speed=28.1x    frame=38518 fps=839 q=-0.0 size=N/A time=00:21:25.21 bitrate=N/A speed=  28x    frame=38985 fps=840 q=-0.0 size=N/A time=00:21:40.79 bitrate=N/A speed=  28x    frame=39326 fps=838 q=-0.0 size=N/A time=00:21:52.17 bitrate=N/A speed=  28x    frame=39715 fps=837 q=-0.0 size=N/A time=00:22:05.15 bitrate=N/A speed=27.9x    frame=40067 fps=836 q=-0.0 size=N/A time=00:22:16.90 bitrate=N/A speed=27.9x    frame=40303 fps=832 q=-0.0 size=N/A time=00:22:24.77 bitrate=N/A speed=27.7x    frame=40636 fps=830 q=-0.0 size=N/A time=00:22:35.88 bitrate=N/A speed=27.7x    frame=40951 fps=827 q=-0.0 size=N/A time=00:22:46.39 bitrate=N/A speed=27.6x    frame=41363 fps=827 q=-0.0 size=N/A time=00:23:00.14 bitrate=N/A speed=27.6x    frame=41742 fps=826 q=-0.0 size=N/A time=00:23:12.79 bitrate=N/A speed=27.6x    frame=42089 fps=825 q=-0.0 size=N/A time=00:23:24.36 bitrate=N/A speed=27.5x    frame=42347 fps=821 q=-0.0 size=N/A time=00:23:32.97 bitrate=N/A speed=27.4x    frame=42594 fps=818 q=-0.0 size=N/A time=00:23:41.21 bitrate=N/A speed=27.3x    frame=42878 fps=815 q=-0.0 size=N/A time=00:23:50.69 bitrate=N/A speed=27.2x    [Parsed_psnr_10 @ 0000020cc66de380] PSNR y:43.493693 u:45.452293 v:46.214787 average:44.139099 min:35.598080 max:62.359630
[out#0/null @ 0000020cc4812f00] video:18540KiB audio:269968KiB subtitle:0KiB other streams:0KiB global headers:0KiB muxing overhead: unknown
frame=43147 fps=817 q=-0.0 Lsize=N/A time=00:23:59.67 bitrate=N/A speed=27.3x    
